#!OML:ASF E:\id_vita\Project 1\Capture day 1\Session 1\Female.ASF
:FULLY-SPECIFIED
:DEGREES
906
root 8.7372 15.3908 -2.08231 207.047 -77.4313 -166.029
lowerback 13.7475 0.403273 -5.63662
upperback 7.6604 -0.599242 -1.47418
thorax 0.406911 -0.623532 1.70857
lowerneck -9.15624 4.18834 -0.890662
upperneck -22.3285 4.93637 1.17432
head -5.3454 1.89103 0.482462
rclavicle 1.11319e-014 -2.38542e-015
rhumerus 7.00203 45.7395 -92.7893
rradius 83.9925
rwrist -26.9889
rhand -34.8988 -7.37232
rfingers 7.12502
rthumb -8.04712 -37.1991
lclavicle 1.11319e-014 -2.38542e-015
lhumerus 62.008 2.64938 105.194
lradius 12.5773
lwrist -15.8919
lhand 6.64439 45.0383
lfingers 7.12502
lthumb 31.9371 72.2569
rfemur -70.6358 0.936458 41.5841
rtibia 45.8094
rfoot -10.2194 -14.7827
rtoes 9.87956
lfemur -87.3893 3.80504 -9.86214
ltibia 79.5797
lfoot -9.86313 2.5946
ltoes -9.98066
907
root 8.77255 15.4233 -2.09584 206.393 -77.9054 -165.389
lowerback 13.8522 0.334092 -5.34678
upperback 7.86423 -0.670296 -1.4886
thorax 0.565632 -0.662156 1.53882
lowerneck -9.46323 4.23037 -0.76934
upperneck -22.4967 4.96803 1.17382
head -5.34881 1.88405 0.467682
rclavicle -1.27222e-014 -2.70347e-014
rhumerus 7.04129 45.7529 -92.7822
rradius 84.2133
rwrist -27.3575
rhand -35.1881 -6.74576
rfingers 7.12502
rthumb -8.32635 -36.5617
lclavicle -1.27222e-014 -2.70347e-014
lhumerus 62.0265 1.93439 103.659
lradius 12.849
lwrist -14.5127
lhand 6.97745 45.4159
lfingers 7.12502
lthumb 32.2542 72.5706
rfemur -70.3567 0.681285 41.8855
rtibia 44.9796
rfoot -9.84302 -14.5309
rtoes 9.79986
lfemur -86.6854 4.05194 -10.5911
ltibia 80.8993
lfoot -9.3563 2.5554
ltoes -7.72746
908
root 8.80835 15.4631 -2.10832 206.427 -78.2806 -165.334
lowerback 13.8591 0.36854 -5.30983
upperback 7.73808 -0.609124 -1.3314
thorax 0.425942 -0.622867 1.67621
lowerneck -8.53109 4.14556 -1.19367
upperneck -22.9485 4.93821 1.38805
head -5.65493 1.89108 0.585746
rclavicle 6.36111e-015 -2.54444e-014
rhumerus 6.25087 45.6625 -93.0023
rradius 84.3504
rwrist -27.7171
rhand -35.5486 -5.5399
rfingers 7.12502
rthumb -8.67418 -35.3417
lclavicle 6.36111e-015 -2.54444e-014
lhumerus 61.6596 1.6467 103.56
lradius 12.8472
lwrist -14.2995
lhand 7.21313 45.4988
lfingers 7.12502
lthumb 32.4785 72.6076
rfemur -70.1808 0.443174 42.1131
rtibia 44.0787
rfoot -9.55531 -14.2268
rtoes 10.854
lfemur -85.9531 4.26085 -11.338
ltibia 82.0696
lfoot -8.95333 2.54805
ltoes -5.65373
909
root 8.84498 15.506 -2.11971 206.968 -78.6701 -165.743
lowerback 13.8092 0.295702 -5.19246
upperback 7.55157 -0.674796 -1.31163
thorax 0.257653 -0.637853 1.6415
lowerneck -7.39161 4.20955 -1.67531
upperneck -23.4446 5.15221 1.78175
head -6.0227 2.01264 0.759883
rclavicle -2.78299e-014 9.14409e-015
rhumerus 5.27986 45.6071 -93.5821
rradius 84.5422
rwrist -27.8824
rhand -35.8481 -4.94847
rfingers 7.12502
rthumb -8.96323 -34.7381
lclavicle -2.78299e-014 9.14409e-015
lhumerus 61.3084 1.49679 103.391
lradius 12.6801
lwrist -14.1124
lhand 7.40639 45.4195
lfingers 7.12502
lthumb 32.6624 72.4904
rfemur -70.0876 0.122417 42.3137
rtibia 43.1429
rfoot -9.26397 -13.8474
rtoes 11.7769
lfemur -85.2309 4.39025 -12.1153
ltibia 83.0719
lfoot -8.75702 2.55577
ltoes -5.65515
910
root 8.8815 15.5439 -2.13459 206.476 -79.1608 -165.227
lowerback 13.8048 0.225565 -5.01866
upperback 7.4772 -0.734735 -1.17157
thorax 0.184046 -0.657939 1.69907
lowerneck -6.68679 4.23066 -2.05169
upperneck -23.7515 5.27498 2.13432
head -6.25829 2.08027 0.915659
rclavicle -1.11319e-014 4.77083e-015
rhumerus 4.32942 45.4893 -94.0316
rradius 84.9325
rwrist -27.6487
rhand -35.5624 -5.46285
rfingers 7.12502
rthumb -8.68751 -35.2641
lclavicle -1.11319e-014 4.77083e-015
lhumerus 60.8445 1.21739 102.842
lradius 12.8441
lwrist -13.4711
lhand 7.71898 45.6062
lfingers 7.12502
lthumb 32.9598 72.6149
rfemur -69.8531 -0.247578 42.7085
rtibia 42.2249
rfoot -8.76074 -13.4615
rtoes 10.8765
lfemur -84.3902 4.58873 -12.7121
ltibia 83.95
lfoot -8.54437 2.47639
ltoes -5.69344
